<svg xmlns="http://www.w3.org/2000/svg" xmlns:svg="http://www.w3.org/2000/svg" xmlns:xlink="http://www.w3.org/1999/xlink" version="1.0" height="630.0000000000001pt" width="1139.9999999999998pt" viewBox="204.99999999999991 -33 1147.9999999999998 636.0000000000001" ><defs><style type="text/css">
            @font-face {
                font-family: 'lt_regular';
                src: url('https://app.creately.com/diagram/assets/fonts/lato/lt-regular-webfont.woff2') format('woff2'),
                    url('https://app.creately.com/diagram/assets/fonts/lato/lt-regular-webfont.woff') format('woff');
                font-weight: normal;
                font-style: normal;
            }
            @font-face {
                font-family: 'noto_regular';
                src: url('https://app.creately.com/diagram/assets/fonts/noto/noto-regular.woff') format('woff'),
                     url('https://app.creately.com/diagram/assets/fonts/noto/noto-regular.woff2') format('woff2');
                font-weight: normal;
                font-style: normal;
            }
        p {
            margin: 0;
        }
        </style></defs><defs><style>
            span{ display: inline-block; }
        </style></defs><g id="3tReTd5Nj9g"><g transform="translate(350 100)"><rect x="0" y="0" width="100" height="29" fill="rgb(112,12,43)" stroke="#700c2b" stroke-width="2" stroke-linecap="round" stroke-linejoin="round" stroke-dasharray="0 0"/><path d="M 50,29 L 50,499.9999999999999" fill="rgb(112,12,43)" stroke="#700c2b" stroke-width="2" stroke-linecap="round" stroke-linejoin="round" stroke-dasharray="3 3"/><rect x="0" y="0" width="100" height="499.9999999999999" fill="rgba(255,255,255,0.01)" stroke="rgba(255,255,255,0.01)" stroke-width="2" stroke-linecap="round" stroke-linejoin="round" stroke-dasharray="3 3"/></g><g transform="translate(383.5, 105) rotate(0, 16.5, 0)" width="33" height="19"><text text-decoration="none" x="0.5" fill="#ffffff" font-size="10pt" font-family="lt_regular"  y="15">Flight</text><text text-decoration="none" x="32.5" fill="#4b4b4b" font-size="10pt" font-family="noto_regular"  y="15"></text></g></g><g id="lV6bIm7hYzr"><g transform="translate(490 100)"><rect x="0" y="0" width="119.99999999999996" height="29" fill="rgb(242,175,29)" stroke="#f2af1d" stroke-width="2" stroke-linecap="round" stroke-linejoin="round" stroke-dasharray="0 0"/><path d="M 59.99999999999998,29 L 59.99999999999998,499.9999999999999" fill="rgb(242,175,29)" stroke="#f2af1d" stroke-width="2" stroke-linecap="round" stroke-linejoin="round" stroke-dasharray="3 3"/><rect x="0" y="0" width="119.99999999999996" height="499.9999999999999" fill="rgba(255,255,255,0.01)" stroke="rgba(255,255,255,0.01)" stroke-width="2" stroke-linecap="round" stroke-linejoin="round" stroke-dasharray="3 3"/></g><g transform="translate(507.5, 105) rotate(0, 42.5, 0)" width="85" height="19"><text text-decoration="none" x="0.5" fill="#ffffff" font-size="10pt" font-family="lt_regular"  y="15">Available&#160;</text><text text-decoration="none" x="54.5" fill="#ffffff" font-size="10pt" font-family="lt_regular"  y="15">flight</text><text text-decoration="none" x="84.5" fill="#4b4b4b" font-size="10pt" font-family="noto_regular"  y="15"></text></g></g><g id="jCgCEkalbyN"><g transform="translate(650 100)"><rect x="0" y="0" width="100" height="29" fill="rgb(141,161,59)" stroke="#8da13b" stroke-width="2" stroke-linecap="round" stroke-linejoin="round" stroke-dasharray="0 0"/><path d="M 50,29 L 50,499.9999999999999" fill="rgb(141,161,59)" stroke="#8da13b" stroke-width="2" stroke-linecap="round" stroke-linejoin="round" stroke-dasharray="3 3"/><rect x="0" y="0" width="100" height="499.9999999999999" fill="rgba(255,255,255,0.01)" stroke="rgba(255,255,255,0.01)" stroke-width="2" stroke-linecap="round" stroke-linejoin="round" stroke-dasharray="3 3"/></g><g transform="translate(668, 105) rotate(0, 32, 0)" width="64" height="19"><text text-decoration="none" x="1" fill="#ffffff" font-size="10pt" font-family="lt_regular"  y="15">Flight&#160;</text><text text-decoration="none" x="36" fill="#ffffff" font-size="10pt" font-family="lt_regular"  y="15">class</text><text text-decoration="none" x="63" fill="#4b4b4b" font-size="10pt" font-family="noto_regular"  y="15"></text></g></g><g id="Z5dwMufVcPP"><g transform="translate(770 100)"><rect x="0" y="0" width="159.99999999999997" height="29" fill="rgb(9,149,206)" stroke="#0995ce" stroke-width="2" stroke-linecap="round" stroke-linejoin="round" stroke-dasharray="0 0"/><path d="M 79.99999999999999,29 L 79.99999999999999,499.9999999999999" fill="rgb(9,149,206)" stroke="#0995ce" stroke-width="2" stroke-linecap="round" stroke-linejoin="round" stroke-dasharray="3 3"/><rect x="0" y="0" width="159.99999999999997" height="499.9999999999999" fill="rgba(255,255,255,0.01)" stroke="rgba(255,255,255,0.01)" stroke-width="2" stroke-linecap="round" stroke-linejoin="round" stroke-dasharray="3 3"/></g><g transform="translate(785, 105) rotate(0, 65, 0)" width="130" height="19"><text text-decoration="none" x="1.5" fill="#ffffff" font-size="10pt" font-family="lt_regular"  y="15">passenger&#160;</text><text text-decoration="none" x="62.5" fill="#ffffff" font-size="10pt" font-family="lt_regular"  y="15">information</text><text text-decoration="none" x="128.5" fill="#4b4b4b" font-size="10pt" font-family="noto_regular"  y="15"></text></g></g><g id="fglZ5faemIO"><g transform="translate(950 100)"><rect x="0" y="0" width="100" height="29" fill="rgb(192,35,44)" stroke="#c0232c" stroke-width="2" stroke-linecap="round" stroke-linejoin="round" stroke-dasharray="0 0"/><path d="M 50,29 L 50,499.9999999999999" fill="rgb(192,35,44)" stroke="#c0232c" stroke-width="2" stroke-linecap="round" stroke-linejoin="round" stroke-dasharray="3 3"/><rect x="0" y="0" width="100" height="499.9999999999999" fill="rgba(255,255,255,0.01)" stroke="rgba(255,255,255,0.01)" stroke-width="2" stroke-linecap="round" stroke-linejoin="round" stroke-dasharray="3 3"/></g><g transform="translate(962.5, 105) rotate(0, 37.5, 0)" width="75" height="19"><text text-decoration="none" x="1.5" fill="#ffffff" font-size="10pt" font-family="lt_regular"  y="15">Meal&#160;</text><text text-decoration="none" x="32.5" fill="#ffffff" font-size="10pt" font-family="lt_regular"  y="15">and&#160;</text><text text-decoration="none" x="55.5" fill="#ffffff" font-size="10pt" font-family="lt_regular"  y="15">set</text><text text-decoration="none" x="73.5" fill="#4b4b4b" font-size="10pt" font-family="noto_regular"  y="15"></text></g></g><g id="k9pJDTdAGqN"><g transform="translate(1099.9999999999998 100)"><rect x="0" y="0" width="100.00000000000004" height="29" fill="rgb(244,116,33)" stroke="#f47421" stroke-width="2" stroke-linecap="round" stroke-linejoin="round" stroke-dasharray="0 0"/><path d="M 50.00000000000002,29 L 50.00000000000002,499.9999999999999" fill="rgb(244,116,33)" stroke="#f47421" stroke-width="2" stroke-linecap="round" stroke-linejoin="round" stroke-dasharray="3 3"/><rect x="0" y="0" width="100.00000000000004" height="499.9999999999999" fill="rgba(255,255,255,0.01)" stroke="rgba(255,255,255,0.01)" stroke-width="2" stroke-linecap="round" stroke-linejoin="round" stroke-dasharray="3 3"/></g><g transform="translate(1115.4999999999998, 105) rotate(0, 34.5, 0)" width="69" height="19"><text text-decoration="none" x="0.5" fill="#ffffff" font-size="10pt" font-family="lt_regular"  y="15">Reservation</text><text text-decoration="none" x="68.5" fill="#4b4b4b" font-size="10pt" font-family="noto_regular"  y="15"></text></g></g><g id="0EEHluGzIgw"><g transform="translate(1249.9999999999998 100)"><rect x="0" y="0" width="100" height="29" fill="rgb(8,65,95)" stroke="#08415f" stroke-width="2" stroke-linecap="round" stroke-linejoin="round" stroke-dasharray="0 0"/><path d="M 50,29 L 50,499.9999999999999" fill="rgb(8,65,95)" stroke="#08415f" stroke-width="2" stroke-linecap="round" stroke-linejoin="round" stroke-dasharray="3 3"/><rect x="0" y="0" width="100" height="499.9999999999999" fill="rgba(255,255,255,0.01)" stroke="rgba(255,255,255,0.01)" stroke-width="2" stroke-linecap="round" stroke-linejoin="round" stroke-dasharray="3 3"/></g><g transform="translate(1274.4999999999998, 105) rotate(0, 25.5, 0)" width="51" height="19"><text text-decoration="none" x="0" fill="#ffffff" font-size="10pt" font-family="lt_regular"  y="15">Payment</text><text text-decoration="none" x="51" fill="#4b4b4b" font-size="10pt" font-family="noto_regular"  y="15"></text></g></g><g id="xobfVugfjqn"><g transform="translate(209.99999999999991 49.99999999999997)"><ellipse cx="40" cy="7.5" rx="10" ry="7.5" fill="rgb(52,189,204)" stroke="#34bdcc" stroke-width="2" stroke-linecap="round" stroke-linejoin="round" stroke-dasharray="0 0"/><path d="M 40,15 L 40,36 L 60,60 M 40,36 L 20,60 M 22,22.5 L 58,22.5" fill="none" stroke="#34bdcc" stroke-width="2" stroke-linecap="round" stroke-linejoin="round" stroke-dasharray="0 0"/><path d="M 40,89 L 40,550.0000000000001" fill="none" stroke="#34bdcc" stroke-width="2" stroke-linecap="round" stroke-linejoin="round" stroke-dasharray="3 3"/><rect x="0" y="0" width="80" height="550.0000000000001" fill="rgba(255,255,255,0.01)" stroke="rgba(255,255,255,0.01)" stroke-width="2" stroke-linecap="round" stroke-linejoin="round" stroke-dasharray="3 3"/></g><g transform="translate(220.4999999999999, 114.99999999999997) rotate(0, 29.5, 0)" width="59" height="19"><text text-decoration="none" x="0" fill="#000000" font-size="10pt" font-family="lt_regular"  y="15">Passenger</text><text text-decoration="none" x="59" fill="#4b4b4b" font-size="10pt" font-family="noto_regular"  y="15"></text></g></g><g id="e5ZbIixnRGS"><g transform="translate(239.99999999999997 150)"><rect x="0" y="0" width="20" height="400" fill="rgb(52,189,204)" stroke="#34bdcc" stroke-width="2" stroke-linecap="round" stroke-linejoin="round" stroke-dasharray="0 0"/></g></g><g id="EaAOyASbKFM"><g transform="translate(390 150)"><rect x="0" y="0" width="20" height="60" fill="rgb(112,12,43)" stroke="#700c2b" stroke-width="2" stroke-linecap="round" stroke-linejoin="round" stroke-dasharray="0 0"/></g></g><g id="8K5SmgRaMt0"><g transform="translate(540 190)"><rect x="0" y="0" width="20" height="60" fill="rgb(242,175,29)" stroke="#f2af1d" stroke-width="2" stroke-linecap="round" stroke-linejoin="round" stroke-dasharray="0 0"/></g></g><g id="NkCyEMZXBXz"><g transform="translate(690 230)"><rect x="0" y="0" width="20" height="60" fill="rgb(141,161,59)" stroke="#8da13b" stroke-width="2" stroke-linecap="round" stroke-linejoin="round" stroke-dasharray="0 0"/></g></g><g id="cLMUxh20owY"><g transform="translate(840 270)"><rect x="0" y="0" width="20" height="60" fill="rgb(9,149,206)" stroke="#0995ce" stroke-width="2" stroke-linecap="round" stroke-linejoin="round" stroke-dasharray="0 0"/></g></g><g id="i77aeRhDD06"><g transform="translate(990.0000000000001 310)"><rect x="0" y="0" width="20" height="60" fill="rgb(192,35,44)" stroke="#c0232c" stroke-width="2" stroke-linecap="round" stroke-linejoin="round" stroke-dasharray="0 0"/></g></g><g id="GAKvYP0vTJy"><g transform="translate(1140 350)"><rect x="0" y="0" width="20" height="60" fill="rgb(244,116,33)" stroke="#f47421" stroke-width="2" stroke-linecap="round" stroke-linejoin="round" stroke-dasharray="0 0"/></g></g><g id="0fZvb1T7Xzd"><mask id="8a229" x="246" y="146" width="158" height="28" maskUnits="userSpaceOnUse"><rect x="246" y="146" width="158" height="28" fill="white" /><rect x="299.5" y="147.5" width="51" height="25" fill="black" /></mask><g mask="url(#8a229)"><path d="M 260,160 L 390,160" fill="none" stroke="#9A9A9A" stroke-width="2" stroke-linecap="round" stroke-linejoin="round"/><path d="M 390,160 L 381.30434782608694,154.25 L 381.30434782608694,165.75 Z" fill="rgb(154,154,154)" stroke="#9A9A9A" stroke-width="2" stroke-linecap="round" stroke-linejoin="round"/></g><g transform="translate(302.5, 150.5)" width="45" height="19"><text text-decoration="none" x="1" fill="rgb(84, 84, 84)" font-size="10pt" font-family="lt_regular"  y="15">search()</text><text text-decoration="none" x="44" fill="#4b4b4b" font-size="10pt" font-family="noto_regular"  y="15"></text></g></g><g id="Yzj5aPflfqN"><mask id="e4956" x="246" y="186" width="158" height="28" maskUnits="userSpaceOnUse"><rect x="246" y="186" width="158" height="28" fill="white" />undefined</mask><g mask="url(#e4956)"><path d="M 390,200 L 260,200" fill="none" stroke="#9A9A9A" stroke-width="2" stroke-linecap="round" stroke-linejoin="round" stroke-dasharray="3 3"/><path d="M 260,200 L 268.69565217391306,205.75 L 268.69565217391306,194.25 Z" fill="rgb(154,154,154)" stroke="#9A9A9A" stroke-width="2" stroke-linecap="round" stroke-linejoin="round"/></g>undefined</g><g id="yuIGxUCvoeI"><mask id="077fb" x="396" y="186" width="158" height="28" maskUnits="userSpaceOnUse"><rect x="396" y="186" width="158" height="28" fill="white" /><rect x="451.5" y="187.5" width="47" height="25" fill="black" /></mask><g mask="url(#077fb)"><path d="M 410,200 L 540,200" fill="none" stroke="#9A9A9A" stroke-width="2" stroke-linecap="round" stroke-linejoin="round"/><path d="M 540,200 L 531.304347826087,194.25 L 531.304347826087,205.75 Z" fill="rgb(154,154,154)" stroke="#9A9A9A" stroke-width="2" stroke-linecap="round" stroke-linejoin="round"/></g><g transform="translate(454.5, 190.5)" width="41" height="19"><text text-decoration="none" x="0.5" fill="rgb(84, 84, 84)" font-size="10pt" font-family="lt_regular"  y="15">select()</text><text text-decoration="none" x="40.5" fill="#4b4b4b" font-size="10pt" font-family="noto_regular"  y="15"></text></g></g><g id="4Xof0e0eaNr"><mask id="02370" x="546" y="226" width="158" height="28" maskUnits="userSpaceOnUse"><rect x="546" y="226" width="158" height="28" fill="white" /><rect x="601.5" y="227.5" width="47" height="25" fill="black" /></mask><g mask="url(#02370)"><path d="M 560,240 L 690,240" fill="none" stroke="#9A9A9A" stroke-width="2" stroke-linecap="round" stroke-linejoin="round"/><path d="M 690,240 L 681.304347826087,234.25 L 681.304347826087,245.75 Z" fill="rgb(154,154,154)" stroke="#9A9A9A" stroke-width="2" stroke-linecap="round" stroke-linejoin="round"/></g><g transform="translate(604.5, 230.5)" width="41" height="19"><text text-decoration="none" x="0.5" fill="rgb(84, 84, 84)" font-size="10pt" font-family="lt_regular"  y="15">select()</text><text text-decoration="none" x="40.5" fill="#4b4b4b" font-size="10pt" font-family="noto_regular"  y="15"></text></g></g><g id="yRJrLJkd9dm"><mask id="62d29" x="696" y="266" width="158" height="28" maskUnits="userSpaceOnUse"><rect x="696" y="266" width="158" height="28" fill="white" /><rect x="751" y="267.5" width="48" height="25" fill="black" /></mask><g mask="url(#62d29)"><path d="M 710,280 L 840,280" fill="none" stroke="#9A9A9A" stroke-width="2" stroke-linecap="round" stroke-linejoin="round"/><path d="M 840,280 L 831.304347826087,274.25 L 831.304347826087,285.75 Z" fill="rgb(154,154,154)" stroke="#9A9A9A" stroke-width="2" stroke-linecap="round" stroke-linejoin="round"/></g><g transform="translate(754, 270.5)" width="42" height="19"><text text-decoration="none" x="1.5" fill="rgb(84, 84, 84)" font-size="10pt" font-family="lt_regular"  y="15">Fill&#160;</text><text text-decoration="none" x="20.5" fill="rgb(84, 84, 84)" font-size="10pt" font-family="lt_regular"  y="15">up()</text><text text-decoration="none" x="40.5" fill="#4b4b4b" font-size="10pt" font-family="noto_regular"  y="15"></text></g></g><g id="jMtv2Ia9c3G"><mask id="8786f" x="846" y="306" width="158" height="28" maskUnits="userSpaceOnUse"><rect x="846" y="306" width="158" height="28" fill="white" /><rect x="897.5" y="307.5" width="55" height="25" fill="black" /></mask><g mask="url(#8786f)"><path d="M 860,320 L 990,320" fill="none" stroke="#9A9A9A" stroke-width="2" stroke-linecap="round" stroke-linejoin="round"/><path d="M 990,320 L 981.304347826087,314.25 L 981.304347826087,325.75 Z" fill="rgb(154,154,154)" stroke="#9A9A9A" stroke-width="2" stroke-linecap="round" stroke-linejoin="round"/></g><g transform="translate(900.5, 310.5)" width="49" height="19"><text text-decoration="none" x="1.5" fill="rgb(84, 84, 84)" font-size="10pt" font-family="lt_regular"  y="15">choose()</text><text text-decoration="none" x="47.5" fill="#4b4b4b" font-size="10pt" font-family="noto_regular"  y="15"></text></g></g><g id="n8CFLgELwUg"><mask id="e8401" x="996" y="346" width="158" height="28" maskUnits="userSpaceOnUse"><rect x="996" y="346" width="158" height="28" fill="white" /><rect x="1046" y="347.5" width="58" height="25" fill="black" /></mask><g mask="url(#e8401)"><path d="M 1010,360 L 1140,360" fill="none" stroke="#9A9A9A" stroke-width="2" stroke-linecap="round" stroke-linejoin="round"/><path d="M 1140,360 L 1131.304347826087,354.25 L 1131.304347826087,365.75 Z" fill="rgb(154,154,154)" stroke="#9A9A9A" stroke-width="2" stroke-linecap="round" stroke-linejoin="round"/></g><g transform="translate(1049, 350.5)" width="52" height="19"><text text-decoration="none" x="1.5" fill="rgb(84, 84, 84)" font-size="10pt" font-family="lt_regular"  y="15">confirm()</text><text text-decoration="none" x="50.5" fill="#4b4b4b" font-size="10pt" font-family="noto_regular"  y="15"></text></g></g><g id="V7GeCW1Fa3O"><mask id="67699" x="246" y="386" width="908" height="28" maskUnits="userSpaceOnUse"><rect x="246" y="386" width="908" height="28" fill="white" /><rect x="644.5" y="387.5" width="111" height="25" fill="black" /></mask><g mask="url(#67699)"><path d="M 1140,400 L 260,400" fill="none" stroke="#9A9A9A" stroke-width="2" stroke-linecap="round" stroke-linejoin="round"/><path d="M 260,400 L 268.69565217391306,405.75 L 268.69565217391306,394.25 Z" fill="rgb(154,154,154)" stroke="#9A9A9A" stroke-width="2" stroke-linecap="round" stroke-linejoin="round"/></g><g transform="translate(647.5, 390.5)" width="105" height="19"><text text-decoration="none" x="1.5" fill="rgb(84, 84, 84)" font-size="10pt" font-family="lt_regular"  y="15">Get&#160;</text><text text-decoration="none" x="26.5" fill="rgb(84, 84, 84)" font-size="10pt" font-family="lt_regular"  y="15">confirmation()</text><text text-decoration="none" x="103.5" fill="#4b4b4b" font-size="10pt" font-family="noto_regular"  y="15"></text></g></g><g id="FHBc1vkaQO2"><g transform="translate(1290 390)"><rect x="0" y="0" width="20" height="60" fill="rgb(8,65,95)" stroke="#08415f" stroke-width="2" stroke-linecap="round" stroke-linejoin="round" stroke-dasharray="0 0"/></g></g><g id="6LluGPtmi0a"><mask id="fdeb6" x="246" y="426" width="1058" height="28" maskUnits="userSpaceOnUse"><rect x="246" y="426" width="1058" height="28" fill="white" /><rect x="740" y="427.5" width="70" height="25" fill="black" /></mask><g mask="url(#fdeb6)"><path d="M 1290,440 L 260,440" fill="none" stroke="#9A9A9A" stroke-width="2" stroke-linecap="round" stroke-linejoin="round"/><path d="M 1290,440 L 1281.304347826087,434.25 L 1281.304347826087,445.75 Z" fill="rgb(154,154,154)" stroke="#9A9A9A" stroke-width="2" stroke-linecap="round" stroke-linejoin="round"/></g><g transform="translate(743, 430.5)" width="64" height="19"><text text-decoration="none" x="0.5" fill="rgb(84, 84, 84)" font-size="10pt" font-family="lt_regular"  y="15">Pay&#160;</text><text text-decoration="none" x="24.5" fill="rgb(84, 84, 84)" font-size="10pt" font-family="lt_regular"  y="15">ticket()</text><text text-decoration="none" x="63.5" fill="#4b4b4b" font-size="10pt" font-family="noto_regular"  y="15"></text></g></g><g id="iuUzRrd2UTN"><g transform="translate(390 470)"><rect x="0" y="0" width="20" height="60.00000000000001" fill="rgb(112,12,43)" stroke="#700c2b" stroke-width="2" stroke-linecap="round" stroke-linejoin="round" stroke-dasharray="0 0"/></g></g><g id="CebBaRdKz8T"><mask id="3e357" x="246" y="466" width="158" height="28" maskUnits="userSpaceOnUse"><rect x="246" y="466" width="158" height="28" fill="white" /><rect x="304.5" y="467.5" width="41" height="25" fill="black" /></mask><g mask="url(#3e357)"><path d="M 260,480 L 390,480" fill="none" stroke="#9A9A9A" stroke-width="2" stroke-linecap="round" stroke-linejoin="round"/><path d="M 390,480 L 381.30434782608694,474.25 L 381.30434782608694,485.75 Z" fill="rgb(154,154,154)" stroke="#9A9A9A" stroke-width="2" stroke-linecap="round" stroke-linejoin="round"/></g><g transform="translate(307.5, 470.5)" width="35" height="19"><text text-decoration="none" x="0.5" fill="rgb(84, 84, 84)" font-size="10pt" font-family="lt_regular"  y="15">Print()</text><text text-decoration="none" x="34.5" fill="#4b4b4b" font-size="10pt" font-family="noto_regular"  y="15"></text></g></g><g id="ga6aKGip0ql"><mask id="3d8d3" x="246" y="506" width="158" height="28" maskUnits="userSpaceOnUse"><rect x="246" y="506" width="158" height="28" fill="white" /><rect x="299" y="507.5" width="52" height="25" fill="black" /></mask><g mask="url(#3d8d3)"><path d="M 260,520 L 390,520" fill="none" stroke="#9A9A9A" stroke-width="2" stroke-linecap="round" stroke-linejoin="round"/><path d="M 390,520 L 381.30434782608694,514.25 L 381.30434782608694,525.75 Z" fill="rgb(154,154,154)" stroke="#9A9A9A" stroke-width="2" stroke-linecap="round" stroke-linejoin="round"/></g><g transform="translate(302, 510.5)" width="46" height="19"><text text-decoration="none" x="1" fill="rgb(84, 84, 84)" font-size="10pt" font-family="lt_regular"  y="15">Cancel()</text><text text-decoration="none" x="45" fill="#4b4b4b" font-size="10pt" font-family="noto_regular"  y="15"></text></g></g><g id="gUEAgMD09Xx"><g transform="translate(510 -30)"><rect x="0" y="0" width="399.9999999999999" height="46.00000000000001" fill="rgba(255,255,255,0.01)" stroke="rgba(255,255,255,0.01)"/></g><g transform="translate(520, -20) rotate(0, 0, 0)" width="371" height="26"><text text-decoration="none" x="0" fill="#4b4b4b" font-weight="bold" font-size="14pt" font-family="lt_regular"  y="20">Sequence&#160;</text><text text-decoration="none" x="87" fill="#4b4b4b" font-weight="bold" font-size="14pt" font-family="lt_regular"  y="20">Diagram&#160;</text><text text-decoration="none" x="162" fill="#4b4b4b" font-weight="bold" font-size="14pt" font-family="lt_regular"  y="20">for&#160;</text><text text-decoration="none" x="192" fill="#4b4b4b" font-weight="bold" font-size="14pt" font-family="lt_regular"  y="20">online&#160;</text><text text-decoration="none" x="249" fill="#4b4b4b" font-weight="bold" font-size="14pt" font-family="lt_regular"  y="20">booking&#160;</text><text text-decoration="none" x="0" fill="#4b4b4b" font-weight="bold" font-size="14pt" font-family="lt_regular"  y="46">system</text><text text-decoration="none" x="59" fill="#4b4b4b" font-size="10pt" font-family="noto_regular"  y="46"></text></g></g></svg>